<svg xmlns="http://www.w3.org/2000/svg" xmlns:xlink="http://www.w3.org/1999/xlink" width="776.492" height="184.665" viewBox="0 0 776.492 184.665"><defs><linearGradient id="a" x1="0.647" y1="1.233" x2="1" y2="-0.103" gradientUnits="objectBoundingBox"><stop offset="0" stop-color="#ff003d"/><stop offset="1" stop-color="#ffc100"/></linearGradient></defs><g transform="translate(9542.299 728)"><path d="M238.646,1316.9l46.166-79.96A39.572,39.572,0,0,1,299.3,1291l-46.166,79.959A39.571,39.571,0,0,1,238.646,1316.9Z" transform="translate(-9775.637 -1964.942)" fill-rule="evenodd" fill="url(#a)"/><path d="M294.3,1413.444l32.976-57.116a39.572,39.572,0,0,1,14.485,54.056L308.782,1467.5A39.571,39.571,0,0,1,294.3,1413.444Z" transform="translate(-9797.032 -2010.834)" fill-rule="evenodd" fill="url(#a)"/><g transform="translate(-10136.125 -2104.278)"><path d="M972.683,1518.535a36.007,36.007,0,0,1-19.645-19.146,36.441,36.441,0,0,1,0-28.221,36.008,36.008,0,0,1,19.645-19.146,39.485,39.485,0,0,1,28.919,0,35.821,35.821,0,0,1,12.183,58.417c-.138.141-.277.28-.417.417a36.048,36.048,0,0,1-11.767,7.679,37.846,37.846,0,0,1-14.406,2.742h-.309A38.115,38.115,0,0,1,972.683,1518.535Zm23.186-12.266a21.786,21.786,0,0,0,11.668-12.016,24.887,24.887,0,0,0,0-18.049,22.043,22.043,0,0,0-11.667-11.914,21.17,21.17,0,0,0-8.576-1.746,21.891,21.891,0,0,0-20.542,13.66,22.9,22.9,0,0,0-1.7,8.875,24.189,24.189,0,0,0,1.7,9.174,21.8,21.8,0,0,0,20.443,13.762,21.372,21.372,0,0,0,8.676-1.746Zm-175.506,14.809a33.75,33.75,0,0,1-16.354-3.79,25.86,25.86,0,0,1-10.72-10.819,34.868,34.868,0,0,1-3.74-16.6v-37.357a2.233,2.233,0,0,1,2.232-2.232h9.894a2.234,2.234,0,0,1,2.234,2.232h0v37.357a20.807,20.807,0,0,0,2.044,9.523,14.445,14.445,0,0,0,5.784,6.182,18.827,18.827,0,0,0,17.451,0,14.34,14.34,0,0,0,5.634-6.182,21.283,21.283,0,0,0,1.995-9.523v-37.357a2.232,2.232,0,0,1,2.231-2.232h9.995a2.234,2.234,0,0,1,2.234,2.232v37.357a34.277,34.277,0,0,1-3.79,16.5,26.582,26.582,0,0,1-10.721,10.869,33.326,33.326,0,0,1-15.55,3.85Q820.789,1521.088,820.363,1521.078Zm67.311-.089a44.378,44.378,0,0,1-16.454-3.192,46.816,46.816,0,0,1-12.686-7.432,2.242,2.242,0,0,1-.343-3.125l5.494-6.951a2.219,2.219,0,0,1,3.117-.372l.045.036a45.092,45.092,0,0,0,10.008,6.327,29.57,29.57,0,0,0,11.917,2.443,24.342,24.342,0,0,0,7.579-1.046,10.869,10.869,0,0,0,4.936-3.041,6.9,6.9,0,0,0,1.745-4.687,6.648,6.648,0,0,0-2.593-5.584q-2.593-1.993-8.875-2.991L877.7,1488.98q-8.874-1.595-13.562-6.332t-4.688-12.318a18.762,18.762,0,0,1,3.39-11.219,21.482,21.482,0,0,1,9.524-7.279,38.046,38.046,0,0,1,14.609-2.542,48.812,48.812,0,0,1,15.307,2.542,42.273,42.273,0,0,1,11.7,5.862,2.245,2.245,0,0,1,.527,3.131l-.012.016-5.169,7.085a2.224,2.224,0,0,1-3.073.515q-10.1-7.084-20.278-7.086a20.9,20.9,0,0,0-6.781,1,10.267,10.267,0,0,0-4.439,2.743,6.4,6.4,0,0,0,.681,9.027l.116.1q2.343,1.7,7.629,2.692l13.163,2.094q10.471,1.695,15.706,6.631t5.235,13.014a19.412,19.412,0,0,1-3.64,11.767,23.751,23.751,0,0,1-10.271,7.778,40.308,40.308,0,0,1-14.769,2.8C888.3,1521,887.986,1521,887.674,1520.989Zm196.655-.909a2.224,2.224,0,0,1-1.774-.877l-34.93-45.792v44.437a2.233,2.233,0,0,1-2.232,2.232h-9.2a2.232,2.232,0,0,1-2.232-2.232h0v-65.339a2.234,2.234,0,0,1,2.232-2.232h10.433a2.232,2.232,0,0,1,1.771.875l33.929,44.2v-42.841a2.234,2.234,0,0,1,2.232-2.232h9.2a2.232,2.232,0,0,1,2.232,2.232h0v65.339a2.231,2.231,0,0,1-2.231,2.232h-9.428Zm-156.331,0a2.231,2.231,0,0,1-2.23-2.232v-65.339a2.232,2.232,0,0,1,2.23-2.232h10a2.234,2.234,0,0,1,2.234,2.232v65.339a2.232,2.232,0,0,1-2.234,2.232Zm-198.38,0a2.492,2.492,0,0,1-2.493-2.493v-35.9a2.492,2.492,0,0,1,2.493-2.493h48.863a2.492,2.492,0,0,1,2.493,2.493v9.972a2.492,2.492,0,0,1-2.493,2.493h-36.4v23.434a2.492,2.492,0,0,1-2.493,2.493Zm0-54.846a2.492,2.492,0,0,1-2.493-2.493v-9.971a2.492,2.492,0,0,1,2.493-2.494h48.863a2.492,2.492,0,0,1,2.493,2.494v9.971a2.492,2.492,0,0,1-2.493,2.493Z" transform="translate(0 0)" fill="#ff8e10"/><path d="M1258.595,1518.436a36.256,36.256,0,0,1-11.818-7.628,35.377,35.377,0,0,1-7.877-11.418,36.442,36.442,0,0,1,0-28.221,35.642,35.642,0,0,1,7.927-11.468,36.659,36.659,0,0,1,11.817-7.678,38.123,38.123,0,0,1,14.509-2.743,39.2,39.2,0,0,1,11.169,1.6,40.694,40.694,0,0,1,10.022,4.487,31.523,31.523,0,0,1,6.508,5.345,2.234,2.234,0,0,1-.086,3.11l-6.557,6.423a2.243,2.243,0,0,1-3.174-.053l-.044-.046a23.981,23.981,0,0,0-7.167-5.254,24.822,24.822,0,0,0-10.67-2.344,22.154,22.154,0,0,0-8.775,1.745,21.819,21.819,0,0,0-7.08,4.787,22.113,22.113,0,0,0-4.687,7.13,23.462,23.462,0,0,0-1.7,9.074,22.728,22.728,0,0,0,1.746,8.926,22.207,22.207,0,0,0,4.787,7.18,21.57,21.57,0,0,0,7.18,4.737,23.814,23.814,0,0,0,9.123,1.695,23.464,23.464,0,0,0,10.271-2.293,24.867,24.867,0,0,0,6.841-4.886,2.247,2.247,0,0,1,3.178-.053l.013.012,6.224,6.226a2.241,2.241,0,0,1,.048,3.122,33.154,33.154,0,0,1-6.382,5.249,37.675,37.675,0,0,1-9.922,4.438,39.213,39.213,0,0,1-10.869,1.545h-.3A38.4,38.4,0,0,1,1258.595,1518.436Zm-81.206,1.645a2.493,2.493,0,0,1-2.493-2.493v-9.972a2.493,2.493,0,0,1,2.493-2.493h48.862a2.493,2.493,0,0,1,2.494,2.493v9.972a2.493,2.493,0,0,1-2.494,2.493Zm181.762,0a2.232,2.232,0,0,1-2.232-2.232h0v-26.288h-32.11v26.288a2.232,2.232,0,0,1-2.229,2.232h-10a2.232,2.232,0,0,1-2.232-2.232h0v-65.339a2.235,2.235,0,0,1,2.232-2.233h10a2.234,2.234,0,0,1,2.232,2.233V1478.3h32.109v-25.788a2.235,2.235,0,0,1,2.229-2.233h9.994a2.233,2.233,0,0,1,2.232,2.233h0v65.339a2.232,2.232,0,0,1-2.232,2.232h-9.994Zm-228.132,0a2.492,2.492,0,0,1-2.493-2.493v-52.354h-20.942a2.492,2.492,0,0,1-2.493-2.492v-9.972a2.492,2.492,0,0,1,2.493-2.493h56.841a2.492,2.492,0,0,1,2.493,2.493v9.972a2.492,2.492,0,0,1-2.493,2.492h-20.941v52.354a2.493,2.493,0,0,1-2.494,2.493Zm46.37-27.922a2.493,2.493,0,0,1-2.493-2.493v-9.972a2.493,2.493,0,0,1,2.493-2.493h48.862a2.493,2.493,0,0,1,2.494,2.493v9.972a2.493,2.493,0,0,1-2.494,2.493Zm0-26.925a2.492,2.492,0,0,1-2.493-2.492v-9.972a2.493,2.493,0,0,1,2.493-2.493h48.862a2.493,2.493,0,0,1,2.494,2.493v9.972a2.492,2.492,0,0,1-2.494,2.492Z" transform="translate(-1.059)" fill="#fff"/></g></g></svg>